<?xml version="1.0" encoding="utf-8"?>
<!-- Generator: Adobe Illustrator 22.0.1, SVG Export Plug-In . SVG Version: 6.00 Build 0)  -->
<svg version="1.1" id="Layer_1" xmlns="http://www.w3.org/2000/svg" xmlns:xlink="http://www.w3.org/1999/xlink" x="0px" y="0px"
	viewBox="0 0 298 345.1" style="enable-background:new 0 0 298 345.1;" xml:space="preserve">
<style type="text/css">
	.st0{fill:#DEDEDE;}
	.st1{fill:#D22856;}
</style>
<g>
	<path class="st0" d="M294.8,158c-5.4-20.7-15.2-39.6-28.3-55.7l8.6-8.6c6.1-6.1,6.1-15.9,0-22c-3.3-3.3-7.8-4.7-12.1-4.3
		c-3.6,0.3-7.1,1.6-9.9,4.3l-8.6,8.6c-9.1-7.4-19.1-13.6-29.7-18.6c-9.6-4.6-19.8-8.2-30.3-10.7c-0.1,0-0.2,0-0.3,0
		c-4.6-1.1-9.2-2-14-2.6v-8v-0.2v-1.3h6.9c10.7,0,19.4-8.7,19.4-19.5c0-10.7-8.7-19.4-19.4-19.4h-6.9h-38.9h-8.1
		c-1.7,0-3.4,0.3-5,0.7c0,0,0,0,0,0c-8.3,2.2-14.5,9.7-14.5,18.7c0,10.8,8.7,19.5,19.4,19.5h8.1v9.4c-50.1,6.5-92.2,38-113.9,81.4
		C13.1,138.4,9.6,147.5,7,157c-3.4,12.5-5.2,25.5-5.2,39.1c0,64.4,41,119.2,98.2,139.9c15.9,5.7,32.9,9.1,50.8,9.1
		c7.4,0,14.7-0.6,21.9-1.6c0.8-0.1,1.5-0.3,2.3-0.5c21-3.4,40.5-11.2,57.6-22.4c23.6-15.5,42.4-37.5,54.1-63.4
		c8.4-18.7,13.2-39.3,13.2-61.1C299.8,182.9,298,170.2,294.8,158z M228.6,273.9c-14.2,14.2-31.6,23.9-50.5,28.7
		c-6.5,1.6-13.3,2.5-20.1,3c-1,0.1-1.9,0.2-2.8,0.2c-1.5,0.1-2.9,0.3-4.4,0.3c-4,0-8.1-0.3-12-0.7c-24.9-2.7-47.9-13.6-65.8-31.6
		c-20.8-20.8-32.3-48.5-32.3-77.9c0-2.3,0.2-4.6,0.3-6.9c1.7-26.8,12.8-51.8,31.9-71c2.4-2.4,4.9-4.6,7.4-6.7l0,0
		C100.1,95,124.7,86,150.8,86c4.8,0,9.4,0.3,14.1,0.9c14.5,1.9,28.2,6.6,40.7,13.8c0.1,0.1,0.3,0.2,0.4,0.3
		c8.1,4.7,15.8,10.4,22.6,17.3c1.6,1.6,3.1,3.3,4.5,5c0.1,0.1,0.1,0.1,0.2,0.2c3,3.4,5.7,7.1,8.3,10.9c1.6,2.4,3.3,4.9,4.7,7.4
		c8.8,15.4,13.9,32.9,14.4,51.1c0,1.1,0.2,2.1,0.2,3.3C260.8,225.5,249.4,253.1,228.6,273.9z"/>
</g>
<path class="st1" d="M150,68.6c-69.9,0-126.5,56.6-126.5,126.5c0,69.9,56.6,126.5,126.5,126.5s126.5-56.6,126.5-126.5
	C276.5,125.2,219.9,68.6,150,68.6z M150,305.8c-60.8,0-110.2-49.3-110.2-110.2c0-60.8,49.3-110.2,110.2-110.2
	c60.8,0,110.2,49.3,110.2,110.2C260.2,256.5,210.8,305.8,150,305.8z"/>
</svg>
